<svg xmlns="http://www.w3.org/2000/svg" viewBox="0 0 800 600"><rect width="800" height="600" fill="#bfe3f0"/><rect y="430" width="800" height="170" fill="#78a85b"/><circle cx="650" cy="100" r="60" fill="#ffe08a"/><path fill="#70777b" d="M220 400c-35-110 45-210 180-205 120 4 170 80 145 190l-10 100h-48l-10-110c-40 25-80 35-135 28l-15 82h-48l-12-90z"/><path fill="#70777b" d="M240 300c-90-35-100 75-35 80l65-20v-55z"/><path fill="none" stroke="#70777b" stroke-width="35" stroke-linecap="round" d="M500 340c65 25 80 80 45 130"/><circle cx="500" cy="250" r="10" fill="#222"/></svg>